<?xml version="1.0" encoding="utf-8"?>
<!-- Generator: Adobe Illustrator 22.0.0, SVG Export Plug-In . SVG Version: 6.00 Build 0)  -->
<svg version="1.1" xmlns="http://www.w3.org/2000/svg" xmlns:xlink="http://www.w3.org/1999/xlink" x="0px" y="0px"
	 viewBox="0 0 63.24 65.28" style="enable-background:new 0 0 63.24 65.28;" xml:space="preserve">
<style type="text/css">
	.st0{fill-rule:evenodd;clip-rule:evenodd;fill:#FFFFFF;}
	.st1{fill-rule:evenodd;clip-rule:evenodd;fill:#F5333F;}
	.st2{fill:none;stroke:#F5333F;stroke-width:0.056;stroke-miterlimit:3.864;}
	.st3{fill:none;stroke:#231F20;stroke-width:0.056;stroke-miterlimit:3.864;}
	.st4{fill:none;stroke:#F5333F;stroke-width:0.96;stroke-miterlimit:3.864;}
	.st5{fill:none;stroke:#231F20;stroke-width:0.437;stroke-miterlimit:3.864;}
	.st6{fill:none;stroke:#231F20;stroke-width:1.75;stroke-miterlimit:3.864;}
	.st7{fill-rule:evenodd;clip-rule:evenodd;fill:#231F20;}
	.st8{fill:none;stroke:#231F20;stroke-width:0.058;stroke-miterlimit:3.864;}
	.st9{fill:none;stroke:#231F20;stroke-width:1.748;stroke-miterlimit:3.864;}
	.st10{fill:none;stroke:#231F20;stroke-width:0;stroke-miterlimit:3.864;}
	.st11{fill:none;stroke:#231F20;stroke-width:0.121;stroke-miterlimit:3.864;}
	.st12{fill:none;stroke:#FFFFFF;stroke-width:0.243;stroke-miterlimit:3.864;}
	.st13{fill:none;stroke:#231F20;stroke-width:1.113;stroke-miterlimit:3.864;}
	.st14{fill:none;stroke:#231F20;stroke-width:0.024;stroke-miterlimit:3.864;}
	.st15{fill:none;stroke:#231F20;stroke-width:0.556;stroke-miterlimit:3.864;}
	.st16{fill-rule:evenodd;clip-rule:evenodd;fill:#B7D435;}
	.st17{fill:none;stroke:#231F20;stroke-width:0.155;stroke-miterlimit:3.864;}
	.st18{fill:none;stroke:#231F20;stroke-width:1.077;stroke-miterlimit:3.864;}
	.st19{fill-rule:evenodd;clip-rule:evenodd;fill:#FFF200;}
	.st20{fill:none;stroke:#231F20;stroke-width:0.134;stroke-miterlimit:3.864;}
	.st21{fill:none;stroke:#231F20;stroke-width:1.07;stroke-miterlimit:3.864;}
	.st22{fill:none;stroke:#231F20;stroke-width:0.047;stroke-miterlimit:3.864;}
	.st23{fill:none;stroke:#231F20;stroke-width:0.225;stroke-miterlimit:3.864;}
	.st24{fill:none;stroke:#231F20;stroke-width:0.046;stroke-miterlimit:3.864;}
	.st25{fill:none;stroke:#231F20;stroke-width:0.262;stroke-miterlimit:3.864;}
	.st26{fill:none;stroke:#231F20;stroke-width:6.83;stroke-miterlimit:3.864;}
	.st27{fill:none;stroke:#231F20;stroke-width:0.218;stroke-miterlimit:3.864;}
	.st28{fill:none;stroke:#231F20;stroke-width:1.129;stroke-miterlimit:3.864;}
	.st29{fill:none;stroke:#231F20;stroke-width:0.173;stroke-miterlimit:3.864;}
	.st30{fill:#231F20;}
	.st31{fill:none;stroke:#231F20;stroke-width:0.111;stroke-miterlimit:3.864;}
	.st32{fill:none;stroke:#231F20;stroke-width:0.11;stroke-miterlimit:3.864;}
	.st33{fill:none;stroke:#231F20;stroke-width:0.109;stroke-miterlimit:3.864;}
	.st34{fill-rule:evenodd;clip-rule:evenodd;fill:#EF3E33;}
	.st35{fill:none;stroke:#EF3E33;stroke-width:0.053;stroke-miterlimit:3.864;}
	.st36{fill:none;stroke:#FFFFFF;stroke-width:0.348;stroke-miterlimit:3.864;}
	.st37{fill:none;stroke:#231F20;stroke-width:0.051;stroke-miterlimit:3.864;}
	.st38{fill:none;stroke:#231F20;stroke-width:0.112;stroke-miterlimit:3.864;}
	.st39{fill:none;stroke:#231F20;stroke-width:0.219;stroke-miterlimit:3.864;}
	.st40{fill:none;stroke:#231F20;stroke-width:5.37;stroke-miterlimit:3.864;}
	.st41{fill:none;stroke:#EF3E33;stroke-width:0.219;stroke-miterlimit:3.864;}
	.st42{fill:none;stroke:#FFF200;stroke-width:0.219;stroke-miterlimit:3.864;}
	.st43{fill-rule:evenodd;clip-rule:evenodd;fill:#005F00;}
	.st44{fill:none;stroke:#005F00;stroke-width:0.219;stroke-miterlimit:3.864;}
	.st45{fill:none;stroke:#231F20;stroke-width:1.12;stroke-miterlimit:3.864;}
	.st46{fill:none;stroke:#231F20;stroke-width:0.199;stroke-miterlimit:3.864;}
	.st47{fill:none;stroke:#231F20;stroke-width:0.465;stroke-miterlimit:3.864;}
	.st48{fill:none;stroke:#231F20;stroke-width:1.626;stroke-miterlimit:3.864;}
	.st49{fill:none;stroke:#231F20;stroke-width:0.274;stroke-miterlimit:3.864;}
	.st50{fill:none;stroke:#231F20;stroke-width:0.313;stroke-miterlimit:3.864;}
	.st51{fill:none;stroke:#231F20;stroke-width:0.179;stroke-miterlimit:3.864;}
	.st52{fill:none;stroke:#231F20;stroke-width:0.22;stroke-miterlimit:3.864;}
	.st53{fill:none;stroke:#231F20;stroke-width:2.049;stroke-miterlimit:3.864;}
	.st54{fill:none;stroke:#231F20;stroke-width:0.778;stroke-miterlimit:3.864;}
	.st55{fill:none;stroke:#231F20;stroke-width:0.195;stroke-miterlimit:3.864;}
	.st56{fill:none;stroke:#231F20;stroke-width:0.057;stroke-miterlimit:3.864;}
	.st57{fill:none;stroke:#231F20;stroke-width:5.133;stroke-miterlimit:3.864;}
	.st58{fill:none;stroke:#231F20;stroke-width:0.171;stroke-miterlimit:3.864;}
	.st59{fill:none;stroke:#EF3E33;stroke-width:0.152;stroke-miterlimit:3.864;}
	.st60{fill:none;stroke:#FFFFFF;stroke-width:0.5;stroke-miterlimit:3.864;}
	.st61{fill:none;stroke:#EF3E33;stroke-width:0.076;stroke-miterlimit:3.864;}
	.st62{fill:none;stroke:#231F20;stroke-width:0.418;}
	.st63{fill:#FFF200;}
	.st64{fill:none;stroke:#231F20;stroke-width:0.424;}
	.st65{fill:none;stroke:#231F20;stroke-width:0.432;}
	.st66{fill:none;stroke:#231F20;stroke-width:0.187;}
	.st67{fill:none;stroke:#231F20;stroke-width:0.097;stroke-miterlimit:3.864;}
	.st68{fill:none;stroke:#231F20;stroke-width:1.363;stroke-miterlimit:3.864;}
	.st69{fill:none;stroke:#231F20;stroke-width:0.153;stroke-miterlimit:3.864;}
	.st70{fill:none;stroke:#231F20;stroke-width:1.143;stroke-miterlimit:3.864;}
	.st71{fill:none;stroke:#231F20;stroke-width:1.312;stroke-miterlimit:3.864;}
	.st72{fill:none;stroke:#231F20;stroke-width:0.436;}
	.st73{fill:none;stroke:#231F20;stroke-width:1.096;stroke-miterlimit:3.864;}
	.st74{fill:none;stroke:#231F20;stroke-width:0.522;}
	.st75{fill:none;stroke:#231F20;stroke-width:0.145;stroke-miterlimit:3.864;}
	.st76{fill:none;stroke:#231F20;stroke-width:1.078;stroke-miterlimit:3.864;}
	.st77{fill:none;stroke:#231F20;stroke-width:0.107;stroke-miterlimit:3.864;}
	.st78{fill:none;stroke:#231F20;stroke-width:1.286;stroke-miterlimit:3.864;}
	.st79{fill:none;stroke:#231F20;stroke-width:0.124;stroke-miterlimit:3.864;}
	.st80{fill:#FFFFFF;stroke:#231F20;stroke-width:0.117;stroke-miterlimit:3.864;}
	.st81{fill:none;stroke:#EF3E33;stroke-width:0;stroke-miterlimit:3.864;}
	.st82{fill-rule:evenodd;clip-rule:evenodd;fill:#09008C;}
	.st83{fill:none;stroke:#09008C;stroke-width:0.102;stroke-miterlimit:3.864;}
	.st84{fill:none;stroke:#231F20;stroke-width:0.055;stroke-miterlimit:3.864;}
	.st85{fill-rule:evenodd;clip-rule:evenodd;fill:#0D6928;}
	.st86{fill:none;stroke:#FFFFFF;stroke-width:0.055;stroke-miterlimit:3.864;}
	.st87{fill:#FC8C00;}
	.st88{fill:none;stroke:#231F20;stroke-width:0.558;}
	.st89{fill:none;stroke:#231F20;stroke-width:0.034;stroke-miterlimit:3.864;}
	.st90{fill:none;stroke:#231F20;stroke-width:1.842;stroke-miterlimit:3.864;}
	.st91{fill-rule:evenodd;clip-rule:evenodd;fill:#FC8C00;}
	.st92{fill:none;stroke:#231F20;stroke-width:0.067;stroke-miterlimit:3.864;}
	.st93{fill:none;stroke:#231F20;stroke-width:1.154;stroke-miterlimit:3.864;}
	.st94{fill:none;stroke:#231F20;stroke-width:0.065;stroke-miterlimit:3.864;}
	.st95{fill:none;stroke:#231F20;stroke-width:0.062;stroke-miterlimit:3.864;}
	.st96{fill:none;stroke:#231F20;stroke-width:1.162;stroke-miterlimit:3.864;}
	.st97{fill:none;stroke:#231F20;stroke-width:0.181;stroke-miterlimit:3.864;}
	.st98{fill:none;stroke:#231F20;stroke-width:1.142;stroke-miterlimit:3.864;}
	.st99{fill:none;stroke:#231F20;stroke-width:0.182;stroke-miterlimit:3.864;}
	.st100{fill:none;stroke:#231F20;stroke-width:1.148;stroke-miterlimit:3.864;}
	.st101{fill:#FFFFFF;stroke:#231F20;stroke-width:0.244;stroke-miterlimit:3.864;}
	.st102{fill:#FFFFFF;stroke:#231F20;stroke-width:0.31;stroke-miterlimit:3.864;}
	.st103{fill:#EF3E33;}
	.st104{fill:none;stroke:#EF3E33;stroke-width:0.155;stroke-miterlimit:3.864;}
	.st105{fill:none;stroke:#231F20;stroke-width:0.032;stroke-miterlimit:3.864;}
	.st106{fill:none;stroke:#EF3E33;stroke-width:5.205;stroke-miterlimit:3.864;}
	.st107{fill:none;stroke:#231F20;stroke-width:0.029;stroke-miterlimit:3.864;}
	.st108{fill:none;stroke:#EF3E33;stroke-width:5.204;stroke-miterlimit:3.864;}
	.st109{fill:none;stroke:#231F20;stroke-width:1.348;stroke-miterlimit:3.864;}
	.st110{fill:none;stroke:#231F20;stroke-width:0.079;stroke-miterlimit:3.864;}
	.st111{fill:none;stroke:#231F20;stroke-width:7.648;stroke-miterlimit:3.864;}
	.st112{fill:none;stroke:#231F20;stroke-width:0.087;stroke-miterlimit:3.864;}
	.st113{fill:none;stroke:#231F20;stroke-width:0.375;stroke-miterlimit:3.864;}
	.st114{fill:none;stroke:#231F20;stroke-width:0.074;stroke-miterlimit:3.864;}
	.st115{fill:none;stroke:#231F20;stroke-width:0.307;stroke-miterlimit:3.864;}
	.st116{fill:none;stroke:#231F20;stroke-width:1.824;stroke-miterlimit:3.864;}
	.st117{fill:none;stroke:#EF4035;stroke-width:5.105;stroke-miterlimit:3.864;}
	.st118{fill:#FFFFFF;}
	.st119{fill:none;stroke:#231F20;stroke-width:0.195;}
	.st120{fill:none;stroke:#231F20;stroke-width:0.165;stroke-miterlimit:3.864;}
	.st121{fill:none;stroke:#231F20;stroke-width:1.203;stroke-miterlimit:3.864;}
	.st122{fill:none;stroke:#231F20;stroke-width:0.176;stroke-miterlimit:3.864;}
	.st123{fill:none;stroke:#231F20;stroke-width:1.271;stroke-miterlimit:3.864;}
	.st124{fill:none;stroke:#231F20;stroke-width:0.443;}
	.st125{fill:none;stroke:#231F20;stroke-width:0.161;stroke-miterlimit:3.864;}
	.st126{fill:none;stroke:#231F20;stroke-width:1.618;stroke-miterlimit:3.864;}
	.st127{fill:none;stroke:#231F20;stroke-width:0.158;stroke-miterlimit:3.864;}
	.st128{fill:none;stroke:#231F20;stroke-width:1.138;stroke-miterlimit:3.864;}
	.st129{fill:none;stroke:#231F20;stroke-width:9.93;stroke-miterlimit:3.864;}
	.st130{fill:none;stroke:#231F20;stroke-width:0.439;}
	.st131{fill:none;stroke:#231F20;stroke-width:0.254;stroke-miterlimit:3.864;}
	.st132{fill:none;stroke:#EF3E33;stroke-width:0.254;stroke-miterlimit:3.864;}
	.st133{fill:none;stroke:#FFFFFF;stroke-width:10.16;stroke-miterlimit:3.864;}
	.st134{fill:none;stroke:#231F20;stroke-width:0.289;stroke-miterlimit:3.864;}
	.st135{fill:none;stroke:#231F20;stroke-width:0.199;stroke-linejoin:bevel;stroke-miterlimit:3.864;}
	.st136{fill:none;stroke:#231F20;stroke-width:0.88;stroke-miterlimit:3.864;}
	.st137{fill:none;stroke:#FFFFFF;stroke-width:0.062;stroke-miterlimit:3.864;}
	.st138{fill:none;stroke:#FFFFFF;stroke-width:0.533;stroke-miterlimit:3.864;}
	.st139{fill:none;stroke:#231F20;stroke-width:0.444;}
	.st140{fill-rule:evenodd;clip-rule:evenodd;fill:#1F1B17;}
	.st141{fill:none;stroke:#231F20;stroke-width:0.168;stroke-miterlimit:3.864;}
	.st142{fill:none;stroke:#231F20;stroke-width:1.249;stroke-miterlimit:3.864;}
	.st143{fill:none;stroke:#231F20;stroke-width:0.043;stroke-miterlimit:3.864;}
	.st144{fill:none;stroke:#231F20;stroke-width:1.841;stroke-miterlimit:3.864;}
	.st145{fill:none;stroke:#231F20;stroke-width:0.415;}
	.st146{fill:none;stroke:#231F20;stroke-width:0.166;stroke-miterlimit:3.864;}
	.st147{fill:none;stroke:#231F20;stroke-width:1.196;stroke-miterlimit:3.864;}
	.st148{fill:none;stroke:#0D6928;stroke-width:0.464;stroke-miterlimit:3.864;}
	.st149{fill:none;stroke:#231F20;stroke-width:1.27;stroke-miterlimit:3.864;}
	.st150{fill:none;stroke:#231F20;stroke-width:0.449;stroke-miterlimit:3.864;}
	.st151{fill:none;stroke:#231F20;stroke-width:0.437;}
	.st152{fill:none;stroke:#231F20;stroke-width:0.157;stroke-miterlimit:3.864;}
	.st153{fill:none;stroke:#231F20;stroke-width:1.131;stroke-miterlimit:3.864;}
	.st154{fill:none;stroke:#231F20;stroke-width:0.234;stroke-miterlimit:3.864;}
	.st155{fill:none;stroke:#231F20;stroke-width:0.186;stroke-miterlimit:3.864;}
	.st156{fill:none;stroke:#231F20;stroke-width:0.757;stroke-miterlimit:3.864;}
	.st157{fill:#F5333F;}
</style>
<g id="Layer_1">
	<polygon class="st101" points="44.83,0.12 18.41,0.12 0.12,19.43 0.12,45.85 18.41,65.15 44.83,65.15 63.12,45.85 63.12,19.43 	"/>
	<polygon class="st103" points="61.6,19.43 44.83,1.65 18.41,1.65 1.65,19.43 1.65,45.85 18.41,63.63 44.83,63.63 61.6,45.85 	"/>
</g>
<g id="Texts">
	<g>
		<path class="st118" d="M16.48,37.14c0,1.8-0.58,3.31-1.73,4.56c-1.15,1.24-2.55,1.86-4.19,1.86c-1.82,0-3.27-0.67-4.37-2.02
			c-1.1-1.35-1.65-2.97-1.65-4.87h3c0,1.03,0.26,1.92,0.77,2.67c0.51,0.75,1.26,1.13,2.25,1.13c0.83,0,1.54-0.33,2.12-1
			c0.59-0.67,0.88-1.45,0.88-2.33c0-1.19-0.59-2.25-1.76-3.18c-0.07-0.07-0.11-0.12-0.11-0.15c-0.04-0.04-0.58-0.43-1.61-1.17
			c-0.73-0.5-1.36-0.93-1.89-1.28c-1.76-1.28-2.64-2.91-2.64-4.88c0-1.59,0.53-2.94,1.6-4.06c1.06-1.12,2.37-1.68,3.91-1.68
			c1.51,0,2.79,0.54,3.82,1.62c1.03,1.08,1.56,2.45,1.59,4.12h-2.92c-0.03-0.75-0.28-1.37-0.75-1.85c-0.47-0.49-1.05-0.73-1.74-0.73
			c-0.71,0-1.32,0.25-1.82,0.74c-0.5,0.49-0.75,1.11-0.75,1.84c0,0.56,0.14,1.02,0.42,1.37c0.28,0.35,0.83,0.77,1.64,1.24
			c2.09,1.27,3.59,2.53,4.52,3.79C16.01,34.13,16.48,35.55,16.48,37.14z"/>
		<path class="st118" d="M28.23,24.05h-3.9v19.14h-3.09V24.05h-3.92v-2.94h10.91V24.05z"/>
		<path class="st118" d="M42.99,32.11c0,3.28-0.41,5.84-1.22,7.68c-1,2.52-2.68,3.77-5.04,3.77c-1.27,0-2.3-0.29-3.1-0.88
			c-0.79-0.59-1.46-1.55-2-2.89c-0.81-1.88-1.21-4.44-1.2-7.68c0-3.28,0.4-5.84,1.2-7.68c0.56-1.31,1.24-2.25,2.04-2.83
			c0.8-0.57,1.83-0.86,3.08-0.86s2.27,0.29,3.04,0.86c0.78,0.57,1.44,1.54,1.98,2.91C42.58,26.4,42.99,28.93,42.99,32.11z
			 M40.06,32.11c0-2.04-0.22-3.87-0.66-5.47c-0.49-1.87-1.37-2.8-2.65-2.8c-1.28,0-2.18,0.91-2.69,2.71
			c-0.47,1.53-0.7,3.41-0.69,5.65c0,1.87,0.23,3.73,0.69,5.58c0.49,1.8,1.38,2.69,2.68,2.69c1.27,0,2.16-0.9,2.66-2.69
			C39.83,36.27,40.06,34.38,40.06,32.11z"/>
		<path class="st118" d="M58.99,27.32c0,1.99-0.49,3.52-1.46,4.59c-0.97,1.07-2.36,1.61-4.16,1.61h-3.34v9.67h-3.09V21.12h6.43
			c1.69,0,3.04,0.57,4.07,1.7C58.48,23.95,58.99,25.45,58.99,27.32z M55.97,27.32c0-0.93-0.26-1.68-0.77-2.25
			c-0.51-0.57-1.19-0.86-2.02-0.86h-3.15v6.27h3.15c0.9,0,1.59-0.27,2.07-0.82C55.73,29.12,55.97,28.34,55.97,27.32z"/>
	</g>
</g>
<g id="Layer_3">
</g>
</svg>
