<?xml version="1.0" encoding="utf-8"?>
<!-- Generator: Adobe Illustrator 22.0.1, SVG Export Plug-In . SVG Version: 6.00 Build 0)  -->
<svg version="1.1" xmlns="http://www.w3.org/2000/svg" xmlns:xlink="http://www.w3.org/1999/xlink" x="0px" y="0px"
	 viewBox="0 0 62.62 62.62" style="enable-background:new 0 0 62.62 62.62;" xml:space="preserve">
<style type="text/css">
	.st0{fill-rule:evenodd;clip-rule:evenodd;fill:#FFFFFF;}
	.st1{fill-rule:evenodd;clip-rule:evenodd;fill:#F5333F;}
	.st2{fill:none;stroke:#F5333F;stroke-width:0.056;stroke-miterlimit:3.864;}
	.st3{fill:none;stroke:#231F20;stroke-width:0.056;stroke-miterlimit:3.864;}
	.st4{fill:none;stroke:#F5333F;stroke-width:0.96;stroke-miterlimit:3.864;}
	.st5{fill:none;stroke:#231F20;stroke-width:0.437;stroke-miterlimit:3.864;}
	.st6{fill:none;stroke:#231F20;stroke-width:1.75;stroke-miterlimit:3.864;}
	.st7{fill-rule:evenodd;clip-rule:evenodd;fill:#231F20;}
	.st8{fill:none;stroke:#231F20;stroke-width:0.058;stroke-miterlimit:3.864;}
	.st9{fill:none;stroke:#231F20;stroke-width:1.748;stroke-miterlimit:3.864;}
	.st10{fill:none;stroke:#231F20;stroke-width:0;stroke-miterlimit:3.864;}
	.st11{fill:none;stroke:#231F20;stroke-width:0.121;stroke-miterlimit:3.864;}
	.st12{fill:none;stroke:#FFFFFF;stroke-width:0.243;stroke-miterlimit:3.864;}
	.st13{fill:none;stroke:#231F20;stroke-width:1.113;stroke-miterlimit:3.864;}
	.st14{fill:none;stroke:#231F20;stroke-width:0.024;stroke-miterlimit:3.864;}
	.st15{fill:none;stroke:#231F20;stroke-width:0.556;stroke-miterlimit:3.864;}
	.st16{fill-rule:evenodd;clip-rule:evenodd;fill:#B7D435;}
	.st17{fill:none;stroke:#231F20;stroke-width:0.155;stroke-miterlimit:3.864;}
	.st18{fill:none;stroke:#231F20;stroke-width:1.077;stroke-miterlimit:3.864;}
	.st19{fill-rule:evenodd;clip-rule:evenodd;fill:#FFF200;}
	.st20{fill:none;stroke:#231F20;stroke-width:0.134;stroke-miterlimit:3.864;}
	.st21{fill:none;stroke:#231F20;stroke-width:1.07;stroke-miterlimit:3.864;}
	.st22{fill:none;stroke:#231F20;stroke-width:0.047;stroke-miterlimit:3.864;}
	.st23{fill:none;stroke:#231F20;stroke-width:0.225;stroke-miterlimit:3.864;}
	.st24{fill:none;stroke:#231F20;stroke-width:0.046;stroke-miterlimit:3.864;}
	.st25{fill:none;stroke:#231F20;stroke-width:0.262;stroke-miterlimit:3.864;}
	.st26{fill:none;stroke:#231F20;stroke-width:6.83;stroke-miterlimit:3.864;}
	.st27{fill:none;stroke:#231F20;stroke-width:0.218;stroke-miterlimit:3.864;}
	.st28{fill:none;stroke:#231F20;stroke-width:1.129;stroke-miterlimit:3.864;}
	.st29{fill:none;stroke:#231F20;stroke-width:0.173;stroke-miterlimit:3.864;}
	.st30{fill:#231F20;}
	.st31{fill:none;stroke:#231F20;stroke-width:0.111;stroke-miterlimit:3.864;}
	.st32{fill:none;stroke:#231F20;stroke-width:0.11;stroke-miterlimit:3.864;}
	.st33{fill:none;stroke:#231F20;stroke-width:0.109;stroke-miterlimit:3.864;}
	.st34{fill-rule:evenodd;clip-rule:evenodd;fill:#EF3E33;}
	.st35{fill:none;stroke:#EF3E33;stroke-width:0.053;stroke-miterlimit:3.864;}
	.st36{fill:none;stroke:#FFFFFF;stroke-width:0.348;stroke-miterlimit:3.864;}
	.st37{fill:none;stroke:#231F20;stroke-width:0.051;stroke-miterlimit:3.864;}
	.st38{fill:none;stroke:#231F20;stroke-width:0.112;stroke-miterlimit:3.864;}
	.st39{fill:none;stroke:#231F20;stroke-width:0.219;stroke-miterlimit:3.864;}
	.st40{fill:none;stroke:#231F20;stroke-width:5.37;stroke-miterlimit:3.864;}
	.st41{fill:none;stroke:#EF3E33;stroke-width:0.219;stroke-miterlimit:3.864;}
	.st42{fill:none;stroke:#FFF200;stroke-width:0.219;stroke-miterlimit:3.864;}
	.st43{fill-rule:evenodd;clip-rule:evenodd;fill:#005F00;}
	.st44{fill:none;stroke:#005F00;stroke-width:0.219;stroke-miterlimit:3.864;}
	.st45{fill:none;stroke:#231F20;stroke-width:1.12;stroke-miterlimit:3.864;}
	.st46{fill:none;stroke:#231F20;stroke-width:0.199;stroke-miterlimit:3.864;}
	.st47{fill:none;stroke:#231F20;stroke-width:0.465;stroke-miterlimit:3.864;}
	.st48{fill:none;stroke:#231F20;stroke-width:1.626;stroke-miterlimit:3.864;}
	.st49{fill:none;stroke:#231F20;stroke-width:0.274;stroke-miterlimit:3.864;}
	.st50{fill:none;stroke:#231F20;stroke-width:0.313;stroke-miterlimit:3.864;}
	.st51{fill:none;stroke:#231F20;stroke-width:0.179;stroke-miterlimit:3.864;}
	.st52{fill:none;stroke:#231F20;stroke-width:0.22;stroke-miterlimit:3.864;}
	.st53{fill:none;stroke:#231F20;stroke-width:2.049;stroke-miterlimit:3.864;}
	.st54{fill:none;stroke:#231F20;stroke-width:0.778;stroke-miterlimit:3.864;}
	.st55{fill:none;stroke:#231F20;stroke-width:0.195;stroke-miterlimit:3.864;}
	.st56{fill:none;stroke:#231F20;stroke-width:0.057;stroke-miterlimit:3.864;}
	.st57{fill:none;stroke:#231F20;stroke-width:5.133;stroke-miterlimit:3.864;}
	.st58{fill:none;stroke:#231F20;stroke-width:0.171;stroke-miterlimit:3.864;}
	.st59{fill:none;stroke:#EF3E33;stroke-width:0.152;stroke-miterlimit:3.864;}
	.st60{fill:none;stroke:#FFFFFF;stroke-width:0.5;stroke-miterlimit:3.864;}
	.st61{fill:none;stroke:#EF3E33;stroke-width:0.076;stroke-miterlimit:3.864;}
	.st62{fill:none;stroke:#231F20;stroke-width:0.418;}
	.st63{fill:#FFF200;}
	.st64{fill:none;stroke:#231F20;stroke-width:0.424;}
	.st65{fill:none;stroke:#231F20;stroke-width:0.432;}
	.st66{fill:none;stroke:#231F20;stroke-width:0.187;}
	.st67{fill:none;stroke:#231F20;stroke-width:0.097;stroke-miterlimit:3.864;}
	.st68{fill:none;stroke:#231F20;stroke-width:1.363;stroke-miterlimit:3.864;}
	.st69{fill:none;stroke:#231F20;stroke-width:0.153;stroke-miterlimit:3.864;}
	.st70{fill:none;stroke:#231F20;stroke-width:1.143;stroke-miterlimit:3.864;}
	.st71{fill:none;stroke:#231F20;stroke-width:1.312;stroke-miterlimit:3.864;}
	.st72{fill:none;stroke:#231F20;stroke-width:0.436;}
	.st73{fill:none;stroke:#231F20;stroke-width:1.096;stroke-miterlimit:3.864;}
	.st74{fill:none;stroke:#231F20;stroke-width:0.522;}
	.st75{fill:none;stroke:#231F20;stroke-width:0.145;stroke-miterlimit:3.864;}
	.st76{fill:none;stroke:#231F20;stroke-width:1.078;stroke-miterlimit:3.864;}
	.st77{fill:none;stroke:#231F20;stroke-width:0.107;stroke-miterlimit:3.864;}
	.st78{fill:none;stroke:#231F20;stroke-width:1.286;stroke-miterlimit:3.864;}
	.st79{fill:none;stroke:#231F20;stroke-width:0.124;stroke-miterlimit:3.864;}
	.st80{fill:#FFFFFF;stroke:#231F20;stroke-width:0.117;stroke-miterlimit:3.864;}
	.st81{fill:none;stroke:#EF3E33;stroke-width:0;stroke-miterlimit:3.864;}
	.st82{fill-rule:evenodd;clip-rule:evenodd;fill:#09008C;}
	.st83{fill:none;stroke:#09008C;stroke-width:0.102;stroke-miterlimit:3.864;}
	.st84{fill:none;stroke:#231F20;stroke-width:0.055;stroke-miterlimit:3.864;}
	.st85{fill-rule:evenodd;clip-rule:evenodd;fill:#0D6928;}
	.st86{fill:none;stroke:#FFFFFF;stroke-width:0.055;stroke-miterlimit:3.864;}
	.st87{fill:#FC8C00;}
	.st88{fill:none;stroke:#231F20;stroke-width:0.558;}
	.st89{fill:none;stroke:#231F20;stroke-width:0.034;stroke-miterlimit:3.864;}
	.st90{fill:none;stroke:#231F20;stroke-width:1.842;stroke-miterlimit:3.864;}
	.st91{fill-rule:evenodd;clip-rule:evenodd;fill:#FC8C00;}
	.st92{fill:none;stroke:#231F20;stroke-width:0.067;stroke-miterlimit:3.864;}
	.st93{fill:none;stroke:#231F20;stroke-width:1.154;stroke-miterlimit:3.864;}
	.st94{fill:none;stroke:#231F20;stroke-width:0.065;stroke-miterlimit:3.864;}
	.st95{fill:none;stroke:#231F20;stroke-width:0.062;stroke-miterlimit:3.864;}
	.st96{fill:none;stroke:#231F20;stroke-width:1.162;stroke-miterlimit:3.864;}
	.st97{fill:none;stroke:#231F20;stroke-width:0.181;stroke-miterlimit:3.864;}
	.st98{fill:none;stroke:#231F20;stroke-width:1.142;stroke-miterlimit:3.864;}
	.st99{fill:none;stroke:#231F20;stroke-width:0.182;stroke-miterlimit:3.864;}
	.st100{fill:none;stroke:#231F20;stroke-width:1.148;stroke-miterlimit:3.864;}
	.st101{fill:#FFFFFF;stroke:#231F20;stroke-width:0.244;stroke-miterlimit:3.864;}
	.st102{fill:#FFFFFF;stroke:#231F20;stroke-width:0.31;stroke-miterlimit:3.864;}
	.st103{fill:#EF3E33;}
	.st104{fill:none;stroke:#EF3E33;stroke-width:0.155;stroke-miterlimit:3.864;}
	.st105{fill:none;stroke:#231F20;stroke-width:0.032;stroke-miterlimit:3.864;}
	.st106{fill:none;stroke:#EF3E33;stroke-width:5.205;stroke-miterlimit:3.864;}
	.st107{fill:none;stroke:#231F20;stroke-width:0.029;stroke-miterlimit:3.864;}
	.st108{fill:none;stroke:#EF3E33;stroke-width:5.204;stroke-miterlimit:3.864;}
	.st109{fill:none;stroke:#231F20;stroke-width:1.348;stroke-miterlimit:3.864;}
	.st110{fill:none;stroke:#231F20;stroke-width:0.079;stroke-miterlimit:3.864;}
	.st111{fill:none;stroke:#231F20;stroke-width:7.648;stroke-miterlimit:3.864;}
	.st112{fill:none;stroke:#231F20;stroke-width:0.087;stroke-miterlimit:3.864;}
	.st113{fill-rule:evenodd;clip-rule:evenodd;fill:#FFFFFF;stroke:#231F20;stroke-width:0.2;stroke-miterlimit:3.864;}
	.st114{fill:none;stroke:#231F20;stroke-width:0.375;stroke-miterlimit:3.864;}
	.st115{fill:none;stroke:#231F20;stroke-width:0.074;stroke-miterlimit:3.864;}
	.st116{fill:none;stroke:#231F20;stroke-width:0.307;stroke-miterlimit:3.864;}
	.st117{fill:none;stroke:#231F20;stroke-width:1.824;stroke-miterlimit:3.864;}
	.st118{fill:none;stroke:#EF4035;stroke-width:5.105;stroke-miterlimit:3.864;}
	.st119{fill:#FFFFFF;}
	.st120{fill:none;stroke:#231F20;stroke-width:0.195;}
	.st121{fill:none;stroke:#231F20;stroke-width:0.165;stroke-miterlimit:3.864;}
	.st122{fill:none;stroke:#231F20;stroke-width:1.203;stroke-miterlimit:3.864;}
	.st123{fill:none;stroke:#231F20;stroke-width:0.176;stroke-miterlimit:3.864;}
	.st124{fill:none;stroke:#231F20;stroke-width:1.271;stroke-miterlimit:3.864;}
	.st125{fill:none;stroke:#231F20;stroke-width:0.443;}
	.st126{fill:none;stroke:#231F20;stroke-width:0.161;stroke-miterlimit:3.864;}
	.st127{fill:none;stroke:#231F20;stroke-width:1.618;stroke-miterlimit:3.864;}
	.st128{fill:none;stroke:#231F20;stroke-width:0.158;stroke-miterlimit:3.864;}
	.st129{fill:none;stroke:#231F20;stroke-width:1.138;stroke-miterlimit:3.864;}
	.st130{fill:none;stroke:#231F20;stroke-width:9.93;stroke-miterlimit:3.864;}
	.st131{fill:none;stroke:#231F20;stroke-width:0.439;}
	.st132{fill:none;stroke:#231F20;stroke-width:0.254;stroke-miterlimit:3.864;}
	.st133{fill:none;stroke:#EF3E33;stroke-width:0.254;stroke-miterlimit:3.864;}
	.st134{fill:none;stroke:#FFFFFF;stroke-width:10.16;stroke-miterlimit:3.864;}
	.st135{fill:none;stroke:#231F20;stroke-width:0.289;stroke-miterlimit:3.864;}
	.st136{fill:none;stroke:#231F20;stroke-width:0.199;stroke-linejoin:bevel;stroke-miterlimit:3.864;}
	.st137{fill:none;stroke:#231F20;stroke-width:0.88;stroke-miterlimit:3.864;}
	.st138{fill:none;stroke:#FFFFFF;stroke-width:0.062;stroke-miterlimit:3.864;}
	.st139{fill:none;stroke:#FFFFFF;stroke-width:0.533;stroke-miterlimit:3.864;}
	.st140{fill:none;stroke:#231F20;stroke-width:0.444;}
	.st141{fill-rule:evenodd;clip-rule:evenodd;fill:#1F1B17;}
	.st142{fill:none;stroke:#231F20;stroke-width:0.168;stroke-miterlimit:3.864;}
	.st143{fill:none;stroke:#231F20;stroke-width:1.249;stroke-miterlimit:3.864;}
	.st144{fill:none;stroke:#231F20;stroke-width:0.043;stroke-miterlimit:3.864;}
	.st145{fill:none;stroke:#231F20;stroke-width:1.841;stroke-miterlimit:3.864;}
	.st146{fill:#FFFFFF;stroke:#231F20;stroke-width:0.4;}
	.st147{fill:none;stroke:#231F20;stroke-width:0.2;stroke-miterlimit:3.864;}
	.st148{fill:none;stroke:#231F20;stroke-width:1.196;stroke-miterlimit:3.864;}
	.st149{fill:none;stroke:#0D6928;stroke-width:0.464;stroke-miterlimit:3.864;}
	.st150{fill:none;stroke:#231F20;stroke-width:1.27;stroke-miterlimit:3.864;}
	.st151{fill:none;stroke:#231F20;stroke-width:0.449;stroke-miterlimit:3.864;}
	.st152{fill:none;stroke:#231F20;stroke-width:0.437;}
	.st153{fill:none;stroke:#231F20;stroke-width:0.157;stroke-miterlimit:3.864;}
	.st154{fill:none;stroke:#231F20;stroke-width:1.131;stroke-miterlimit:3.864;}
	.st155{fill:none;stroke:#231F20;stroke-width:0.234;stroke-miterlimit:3.864;}
	.st156{fill:none;stroke:#231F20;stroke-width:0.186;stroke-miterlimit:3.864;}
	.st157{fill:none;stroke:#231F20;stroke-width:0.757;stroke-miterlimit:3.864;}
	.st158{fill:#FFFFFF;stroke:#231F20;stroke-width:0.2;stroke-miterlimit:3.864;}
	.st159{fill:none;stroke:#000000;stroke-width:0.4;stroke-miterlimit:3.864;}
	.st160{fill:#FFFFFF;stroke:#231F20;stroke-width:0.102;stroke-miterlimit:3.864;}
	.st161{fill:none;stroke:#231F20;stroke-width:1.5;stroke-miterlimit:3.864;}
	.st162{fill:none;stroke:#FFFFFF;stroke-width:0.355;stroke-miterlimit:3.864;}
	.st163{fill-rule:evenodd;clip-rule:evenodd;fill:#FFFFFF;stroke:#000000;stroke-width:1.5;stroke-miterlimit:3.864;}
	.st164{fill:#FFFFFF;stroke:#FFFFFF;stroke-width:0.083;stroke-miterlimit:3.864;}
	.st165{fill:#FFFFFF;stroke:#FFFFFF;stroke-width:0.146;stroke-miterlimit:3.864;}
	.st166{fill:#FFFFFF;stroke:#FFFFFF;stroke-width:0.126;stroke-miterlimit:3.864;}
	.st167{fill:none;stroke:#FFFFFF;stroke-width:1.5;stroke-miterlimit:3.864;}
	.st168{fill:none;stroke:#231F20;stroke-width:1.627;stroke-miterlimit:3.864;}
	.st169{fill:none;stroke:#231F20;stroke-width:1.102;stroke-linecap:round;stroke-linejoin:round;}
	.st170{fill:none;stroke:#FFF200;stroke-width:0.275;stroke-linecap:round;stroke-linejoin:round;}
	.st171{fill:none;stroke:#231F20;stroke-width:1.137;stroke-miterlimit:3.864;}
	.st172{fill:none;stroke:#231F20;stroke-width:0.349;}
	.st173{fill:none;stroke:#231F20;stroke-width:1.224;stroke-miterlimit:3.864;}
	.st174{fill:none;stroke:#231F20;stroke-width:0.462;stroke-miterlimit:3.864;}
	.st175{fill:#F5333F;}
	.st176{fill:none;}
	.st177{fill:none;stroke:#FFFFFF;stroke-width:0.254;stroke-miterlimit:3.864;}
	.st178{fill-rule:evenodd;clip-rule:evenodd;fill:#007934;}
	.st179{fill:none;stroke:#007934;stroke-width:0.011;stroke-miterlimit:3.864;}
	.st180{fill:none;stroke:#231F20;stroke-width:0.5;stroke-miterlimit:3.864;}
	.st181{display:none;}
</style>
<g id="Layer_1">
	<path class="st63" d="M1.11,29.15L29.15,1.11c0.59-0.59,1.38-0.89,2.16-0.89c0.78,0,1.56,0.3,2.16,0.89l28.05,28.05
		c0.59,0.59,0.89,1.38,0.89,2.16c0,0.78-0.29,1.57-0.89,2.16L33.47,61.52c-0.59,0.59-1.38,0.89-2.16,0.89
		c-0.78,0-1.56-0.3-2.16-0.89L1.11,33.47c-0.59-0.59-0.89-1.38-0.89-2.16C0.22,30.53,0.51,29.75,1.11,29.15"/>
	<path class="st65" d="M1.11,29.15L29.15,1.11c0.59-0.59,1.38-0.89,2.16-0.89c0.78,0,1.56,0.3,2.16,0.89l28.05,28.05
		c0.59,0.59,0.89,1.38,0.89,2.16c0,0.78-0.29,1.57-0.89,2.16L33.47,61.52c-0.59,0.59-1.38,0.89-2.16,0.89
		c-0.78,0-1.56-0.3-2.16-0.89L1.11,33.47c-0.59-0.59-0.89-1.38-0.89-2.16C0.22,30.53,0.51,29.75,1.11,29.15z"/>
	<path class="st7" d="M1.78,29.6L29.6,1.78c0.94-0.94,2.48-0.94,3.42,0L60.84,29.6c0.94,0.94,0.94,2.48,0,3.42L33.02,60.84
		c-0.94,0.94-2.48,0.94-3.42,0L1.78,33.02C0.84,32.08,0.84,30.54,1.78,29.6"/>
	<path class="st19" d="M2.65,30.46l27.8-27.8c0.47-0.47,1.24-0.47,1.71,0l27.81,27.8c0.47,0.47,0.47,1.24,0,1.71l-27.81,27.8
		c-0.47,0.47-1.24,0.47-1.71,0l-27.8-27.8C2.18,31.7,2.18,30.93,2.65,30.46"/>
	<path class="st7" d="M42.14,18.63c-2.43-1.71-5.5-2.92-8.52-3.17c-4.54-0.4-9.17,1.18-12.63,4.2l-1.55-2.11
		c-0.19-0.25-0.37-0.44-0.68-0.44c-0.47-0.03-0.87,0.34-0.87,0.78l-0.47,10.48l9.89-3.48c0.43-0.12,0.65-0.62,0.5-1.06
		c-0.09-0.31-0.31-0.43-0.65-0.56l-2.46-0.87c2.39-1.87,5.53-2.74,8.55-2.49c2.27,0.22,4.57,1.12,6.34,2.46L42.14,18.63"/>
	<path class="st66" d="M42.14,18.63c-2.43-1.71-5.5-2.92-8.52-3.17c-4.54-0.4-9.17,1.18-12.63,4.2l-1.55-2.11
		c-0.19-0.25-0.37-0.44-0.68-0.44c-0.47-0.03-0.87,0.34-0.87,0.78l-0.47,10.48l9.89-3.48c0.43-0.12,0.65-0.62,0.5-1.06
		c-0.09-0.31-0.31-0.43-0.65-0.56l-2.46-0.87c2.39-1.87,5.53-2.74,8.55-2.49c2.27,0.22,4.57,1.12,6.34,2.46L42.14,18.63z"/>
	<path class="st7" d="M15.43,30.54c-0.25,2.95,0.28,6.19,1.59,8.92c1.99,4.17,5.69,7.37,10.04,8.8l-1.03,2.4
		c-0.13,0.31-0.19,0.56-0.03,0.84c0.22,0.4,0.72,0.56,1.12,0.34l9.24-4.91l-7.99-6.78c-0.34-0.28-0.87-0.25-1.18,0.12
		c-0.19,0.25-0.19,0.5-0.13,0.84l0.46,2.58c-2.8-1.15-5.16-3.39-6.47-6.15c-1-2.05-1.34-4.51-1.12-6.66L15.43,30.54"/>
	<path class="st66" d="M15.43,30.54c-0.25,2.95,0.28,6.19,1.59,8.92c1.99,4.17,5.69,7.37,10.04,8.8l-1.03,2.4
		c-0.13,0.31-0.19,0.56-0.03,0.84c0.22,0.4,0.72,0.56,1.12,0.34l9.24-4.91l-7.99-6.78c-0.34-0.28-0.87-0.25-1.18,0.12
		c-0.19,0.25-0.19,0.5-0.13,0.84l0.46,2.58c-2.8-1.15-5.16-3.39-6.47-6.15c-1-2.05-1.34-4.51-1.12-6.66L15.43,30.54z"/>
	<path class="st7" d="M39.16,47.55c2.67-1.24,5.22-3.36,6.93-5.85c2.61-3.79,3.52-8.61,2.55-13.06l2.61-0.31
		c0.31-0.06,0.56-0.12,0.75-0.4c0.22-0.37,0.09-0.9-0.28-1.15l-8.89-5.53l-1.84,10.29c-0.09,0.47,0.22,0.9,0.68,0.96
		c0.31,0.06,0.53-0.09,0.81-0.31l1.99-1.65c0.4,2.95-0.34,6.13-2.08,8.65c-1.27,1.86-3.2,3.42-5.22,4.32L39.16,47.55"/>
	<path class="st66" d="M39.16,47.55c2.67-1.24,5.22-3.36,6.93-5.85c2.61-3.79,3.52-8.61,2.55-13.06l2.61-0.31
		c0.31-0.06,0.56-0.12,0.75-0.4c0.22-0.37,0.09-0.9-0.28-1.15l-8.89-5.53l-1.84,10.29c-0.09,0.47,0.22,0.9,0.68,0.96
		c0.31,0.06,0.53-0.09,0.81-0.31l1.99-1.65c0.4,2.95-0.34,6.13-2.08,8.65c-1.27,1.86-3.2,3.42-5.22,4.32L39.16,47.55z"/>
</g>
<g id="Texts">
</g>
<g id="Layer_3" class="st181">
</g>
</svg>
